<?xml version="1.0" encoding="utf-8"?>
<!-- Generator: Adobe Illustrator 23.0.2, SVG Export Plug-In . SVG Version: 6.00 Build 0)  -->
<svg version="1.1" id="Layer_1" xmlns="http://www.w3.org/2000/svg" xmlns:xlink="http://www.w3.org/1999/xlink" x="0px" y="0px"
	 viewBox="0 0 300 300" style="enable-background:new 0 0 300 300;" xml:space="preserve">
<style type="text/css">
	.st0{font-family:'Baloo2-ExtraBold';}
	.st1{font-size:22.3335px;}
</style>
<path d="M202.08,63.15c-1.15,0-2.08,0.93-2.08,2.08v20.83c0,1.15,0.93,2.08,2.08,2.08h20.83c1.15,0,2.08-0.93,2.08-2.08V65.24
	c0-1.15-0.93-2.08-2.08-2.08H202.08z M200,213.15v-6.25c0-3.45,2.8-6.25,6.25-6.25s6.25,2.8,6.25,6.25v6.25H225v-6.25
	c0-3.45,2.8-6.25,6.25-6.25s6.25,2.8,6.25,6.25v12.5c0,3.45-2.8,6.25-6.25,6.25h-50c-3.45,0-6.25-2.8-6.25-6.25v-12.5
	c0-3.45,2.8-6.25,6.25-6.25s6.25,2.8,6.25,6.25v6.25H200L200,213.15z M162.5,125.65h6.25c3.45,0,6.25,2.8,6.25,6.25
	c0,3.45-2.8,6.25-6.25,6.25h-25c-3.45,0-6.25-2.8-6.25-6.25c0-3.45,2.8-6.25,6.25-6.25H150v-12.5h-18.75c-3.45,0-6.25-2.8-6.25-6.25
	s2.8-6.25,6.25-6.25h37.5c3.45,0,6.25,2.8,6.25,6.25s-2.8,6.25-6.25,6.25h-6.25V125.65z M225,138.15h-6.25
	c-3.45,0-6.25-2.8-6.25-6.25c0-3.45,2.8-6.25,6.25-6.25H225v-6.25c0-3.45,2.8-6.25,6.25-6.25s6.25,2.8,6.25,6.25v25
	c0,3.45-2.8,6.25-6.25,6.25s-6.25-2.8-6.25-6.25V138.15z M162.5,163.15h-6.25c-3.45,0-6.25-2.8-6.25-6.25c0-3.45,2.8-6.25,6.25-6.25
	h12.5c3.45,0,6.25,2.8,6.25,6.25v25c0,3.45-2.8,6.25-6.25,6.25h-37.5c-3.45,0-6.25-2.8-6.25-6.25c0-3.45,2.8-6.25,6.25-6.25h31.25
	V163.15L162.5,163.15z M202.08,50.65h20.83c8.05,0,14.58,6.53,14.58,14.58v20.83c0,8.05-6.53,14.58-14.58,14.58h-20.83
	c-8.05,0-14.58-6.53-14.58-14.58V65.24C187.5,57.18,194.03,50.65,202.08,50.65z M77.08,50.65h20.83c8.05,0,14.58,6.53,14.58,14.58
	v20.83c0,8.05-6.53,14.58-14.58,14.58H77.08c-8.05,0-14.58-6.53-14.58-14.58V65.24C62.5,57.18,69.03,50.65,77.08,50.65z
	 M77.08,63.15c-1.15,0-2.08,0.93-2.08,2.08v20.83c0,1.15,0.93,2.08,2.08,2.08h20.83c1.15,0,2.08-0.93,2.08-2.08V65.24
	c0-1.15-0.93-2.08-2.08-2.08H77.08z M77.08,175.65h20.83c8.05,0,14.58,6.53,14.58,14.58v20.83c0,8.05-6.53,14.58-14.58,14.58H77.08
	c-8.05,0-14.58-6.53-14.58-14.58v-20.83C62.5,182.18,69.03,175.65,77.08,175.65z M77.08,188.15c-1.15,0-2.08,0.93-2.08,2.08v20.83
	c0,1.15,0.93,2.08,2.08,2.08h20.83c1.15,0,2.08-0.93,2.08-2.08v-20.83c0-1.15-0.93-2.08-2.08-2.08H77.08z M162.5,63.15h-31.25
	c-3.45,0-6.25-2.8-6.25-6.25s2.8-6.25,6.25-6.25h37.5c3.45,0,6.25,2.8,6.25,6.25v25c0,3.45-2.8,6.25-6.25,6.25s-6.25-2.8-6.25-6.25
	V63.15z M131.25,88.15c-3.45,0-6.25-2.8-6.25-6.25s2.8-6.25,6.25-6.25h12.5c3.45,0,6.25,2.8,6.25,6.25s-2.8,6.25-6.25,6.25H131.25z
	 M68.75,163.15c-3.45,0-6.25-2.8-6.25-6.25c0-3.45,2.8-6.25,6.25-6.25h25c3.45,0,6.25,2.8,6.25,6.25c0,3.45-2.8,6.25-6.25,6.25
	H68.75z M118.75,163.15c-3.45,0-6.25-2.8-6.25-6.25c0-3.45,2.8-6.25,6.25-6.25h12.5c3.45,0,6.25,2.8,6.25,6.25
	c0,3.45-2.8,6.25-6.25,6.25H118.75z M137.5,213.15v6.25c0,3.45-2.8,6.25-6.25,6.25c-3.45,0-6.25-2.8-6.25-6.25v-12.5
	c0-3.45,2.8-6.25,6.25-6.25h25c3.45,0,6.25,2.8,6.25,6.25c0,3.45-2.8,6.25-6.25,6.25H137.5z M112.5,125.65h6.25
	c3.45,0,6.25,2.8,6.25,6.25c0,3.45-2.8,6.25-6.25,6.25h-12.5c-3.45,0-6.25-2.8-6.25-6.25v-6.25h-6.25c-3.45,0-6.25-2.8-6.25-6.25
	s2.8-6.25,6.25-6.25h12.5c3.45,0,6.25,2.8,6.25,6.25V125.65z M62.5,119.4c0-3.45,2.8-6.25,6.25-6.25s6.25,2.8,6.25,6.25v12.5
	c0,3.45-2.8,6.25-6.25,6.25s-6.25-2.8-6.25-6.25V119.4z M187.5,119.4c0-3.45,2.8-6.25,6.25-6.25s6.25,2.8,6.25,6.25v25
	c0,3.45-2.8,6.25-6.25,6.25s-6.25-2.8-6.25-6.25V119.4z M212.5,175.65v-6.25c0-3.45,2.8-6.25,6.25-6.25h12.5
	c3.45,0,6.25,2.8,6.25,6.25c0,3.45-2.8,6.25-6.25,6.25H225v6.25c0,3.45-2.8,6.25-6.25,6.25h-25c-3.45,0-6.25-2.8-6.25-6.25v-12.5
	c0-3.45,2.8-6.25,6.25-6.25s6.25,2.8,6.25,6.25v6.25H212.5z M37.5,69.4c0,3.45-2.8,6.25-6.25,6.25S25,72.85,25,69.4v-25
	c0-17.26,13.99-31.25,31.25-31.25h25c3.45,0,6.25,2.8,6.25,6.25s-2.8,6.25-6.25,6.25h-25c-10.36,0-18.75,8.39-18.75,18.75V69.4z
	 M218.75,25.65c-3.45,0-6.25-2.8-6.25-6.25s2.8-6.25,6.25-6.25h25c17.26,0,31.25,13.99,31.25,31.25v25c0,3.45-2.8,6.25-6.25,6.25
	s-6.25-2.8-6.25-6.25v-25c0-10.36-8.39-18.75-18.75-18.75H218.75z M81.25,250.65c3.45,0,6.25,2.8,6.25,6.25
	c0,3.45-2.8,6.25-6.25,6.25h-25C38.99,263.15,25,249.16,25,231.9v-25c0-3.45,2.8-6.25,6.25-6.25s6.25,2.8,6.25,6.25v25
	c0,10.36,8.39,18.75,18.75,18.75H81.25z M262.5,206.9c0-3.45,2.8-6.25,6.25-6.25s6.25,2.8,6.25,6.25v25
	c0,17.26-13.99,31.25-31.25,31.25h-25c-3.45,0-6.25-2.8-6.25-6.25c0-3.45,2.8-6.25,6.25-6.25h25c10.36,0,18.75-8.39,18.75-18.75
	V206.9z"/>
<text transform="matrix(1.3096 0 0 1 57.9927 287.7119)" class="st0 st1">CODEGESTION</text>
<path d="M116.05,25.59c-8.64,0-15.65-2.8-15.65-6.25s7.01-6.25,15.65-6.25h62.61c8.64,0,15.65,2.8,15.65,6.25s-7.01,6.25-15.65,6.25
	H116.05z"/>
<path d="M116.05,263.68c-8.64,0-15.65-2.8-15.65-6.25s7.01-6.25,15.65-6.25h62.61c8.64,0,15.65,2.8,15.65,6.25
	s-7.01,6.25-15.65,6.25H116.05z"/>
</svg>
